<svg width="18" height="9" viewBox="0 0 18 9" fill="inherit" xmlns="http://www.w3.org/2000/svg">
<path d="M18 4.49999C18 4.39038 17.9354 4.24484 17.8699 4.17421L14.1776 0.147842C14.0052 -0.0350704 13.7259 -0.0562677 13.525 0.129369C13.3453 0.295323 13.3408 0.618992 13.507 0.799205L16.4709 4.02621L0.46154 4.02621C0.206631 4.02621 0 4.23828 0 4.49989C0 4.76151 0.206631 4.9736 0.46154 4.9736L16.4709 4.9736L13.507 8.20062C13.3408 8.38081 13.3526 8.69652 13.525 8.87043C13.7069 9.05403 14.0078 9.03769 14.1776 8.85196L17.8699 4.8256C17.9783 4.71639 17.9982 4.61121 18 4.49999Z" />
</svg>
