<svg width="18" height="9" viewBox="0 0 18 9" fill="inherit" xmlns="http://www.w3.org/2000/svg">
<path d="M0 4.49999C0 4.39038 0.0646076 4.24484 0.130146 4.17421L3.82241 0.147842C3.99479 -0.0350704 4.27406 -0.0562677 4.47504 0.129369C4.65472 0.295323 4.6592 0.618992 4.49304 0.799205L1.52913 4.02621L17.5385 4.02621C17.7934 4.02621 18 4.23828 18 4.49989C18 4.76151 17.7934 4.9736 17.5385 4.9736L1.52913 4.9736L4.49304 8.20062C4.65917 8.38081 4.64738 8.69652 4.47504 8.87043C4.29308 9.05403 3.99216 9.03769 3.82241 8.85196L0.130146 4.8256C0.0216618 4.71639 0.00182343 4.61121 0 4.49999Z"/>
</svg>
