<svg width="9" height="5" viewBox="0 0 9 5" fill="none" xmlns="http://www.w3.org/2000/svg">
<path d="M4.50001 5C4.60962 5 4.75516 4.92998 4.82579 4.85896L8.85216 0.857691C9.03507 0.670879 9.05627 0.36824 8.87063 0.150443C8.70468 -0.0442717 8.38101 -0.049125 8.20079 0.130935L4.97379 3.34289C5 3.37446 4.76162 3.37446 4.5 3.37446C4.23838 3.37446 4 3.37446 4.0264 3.34289L0.799382 0.130935C0.619193 -0.0490999 0.303483 -0.0363191 0.12957 0.150443C-0.0540297 0.347633 -0.0376886 0.67373 0.148043 0.857691L4.1744 4.85896C4.28361 4.97652 4.38879 4.99802 4.50001 5Z" fill="#2C2727"/>
</svg>
