<svg width="8" height="8" viewBox="0 0 8 8" fill="none" xmlns="http://www.w3.org/2000/svg">
<path d="M7.83471 6.64059L4.70288 0.557457C4.50714 0.185819 4.25802 0 4 0C3.74198 0 3.49286 0.185819 3.29712 0.557457L0.165289 6.64059C-0.22619 7.38386 0.103008 8 0.885965 8H7.11404C7.89699 8 8.22619 7.38386 7.83471 6.64059ZM7.60338 7.40342C7.53221 7.53056 7.35426 7.6088 7.11404 7.6088H0.885965C0.64574 7.6088 0.467795 7.53056 0.396617 7.40342C0.325439 7.27628 0.352131 7.06112 0.476692 6.83619L3.60852 0.753056C3.72419 0.528117 3.87544 0.391198 4 0.391198C4.12456 0.391198 4.27581 0.528117 4.39148 0.753056L7.52331 6.83619C7.64787 7.06112 7.67456 7.27628 7.60338 7.40342ZM4 5.50611C3.65301 5.50611 3.37719 5.80929 3.37719 6.19071C3.37719 6.57213 3.65301 6.87531 4 6.87531C4.34699 6.87531 4.62281 6.57213 4.62281 6.19071C4.62281 5.80929 4.34699 5.50611 4 5.50611ZM4 6.48411C3.84875 6.48411 3.73308 6.35697 3.73308 6.19071C3.73308 6.02445 3.84875 5.89731 4 5.89731C4.15125 5.89731 4.26692 6.02445 4.26692 6.19071C4.26692 6.35697 4.15125 6.48411 4 6.48411ZM3.82206 4.91932V1.78973C3.82206 1.68215 3.90213 1.59413 4 1.59413C4.09787 1.59413 4.17794 1.68215 4.17794 1.78973V4.91932C4.17794 5.02689 4.09787 5.11491 4 5.11491C3.90213 5.11491 3.82206 5.02689 3.82206 4.91932Z" fill="#EE1616"/>
</svg>
