<svg width="16" height="16" viewBox="0 0 16 16" fill="inherit" xmlns="http://www.w3.org/2000/svg">
<path d="M0.195093 15.8049C0.320048 15.9298 0.489502 16 0.666189 16C0.842876 16 1.01233 15.9298 1.13729 15.8049L7.99583 8.94636L14.8544 15.8049C14.9801 15.9263 15.1484 15.9934 15.3231 15.9919C15.4978 15.9904 15.6649 15.9203 15.7885 15.7968C15.912 15.6732 15.9821 15.5061 15.9836 15.3314C15.9851 15.1567 15.918 14.9884 15.7966 14.8627L8.93803 8.00416L15.7966 1.14562C15.8602 1.08415 15.911 1.01062 15.9459 0.929327C15.9808 0.848032 15.9992 0.760597 16 0.672122C16.0007 0.583646 15.9839 0.495904 15.9504 0.414014C15.9169 0.332125 15.8674 0.257728 15.8048 0.195164C15.7423 0.1326 15.6679 0.0831231 15.586 0.0496194C15.5041 0.0161157 15.4164 -0.000743666 15.3279 2.51585e-05C15.2394 0.000793983 15.152 0.0191756 15.0707 0.0540974C14.9894 0.0890191 14.9159 0.139782 14.8544 0.203423L7.99583 7.06197L1.13729 0.203423C1.01161 0.0820455 0.843297 0.014883 0.668587 0.0164012C0.493877 0.0179194 0.326753 0.0879968 0.20321 0.21154C0.0796664 0.335083 0.00958904 0.502207 0.00807086 0.676917C0.00655268 0.851627 0.0737151 1.01994 0.195093 1.14562L7.05364 8.00416L0.195093 14.8627C0.0701749 14.9877 0 15.1571 0 15.3338C0 15.5105 0.0701749 15.68 0.195093 15.8049Z" />
</svg>
